<mxfile host="app.diagrams.net" modified="2023-05-19T07:08:27.552Z" agent="Mozilla/5.0 (Macintosh; Intel Mac OS X 10_15_7) AppleWebKit/537.36 (KHTML, like Gecko) Chrome/113.0.0.0 Safari/537.36 Edg/113.0.1774.50" version="21.3.2" etag="XG2U1co_huEBGGYt06i4" type="github">
  <diagram name="第 1 页" id="iK69_H9RPzFahU6cGki6">
    <mxGraphModel>
      <root>
        <mxCell id="0" />
        <mxCell id="1" parent="0" />
      </root>
    </mxGraphModel>
  </diagram>
</mxfile>
